<?xml version="1.0" encoding="utf-8"?>
<!-- Generator: Adobe Illustrator 25.4.1, SVG Export Plug-In . SVG Version: 6.00 Build 0)  -->
<svg version="1.1" id="Layer_1" xmlns="http://www.w3.org/2000/svg" xmlns:xlink="http://www.w3.org/1999/xlink" x="0px" y="0px"
	 viewBox="0 0 724.4 69" enable-background="new 0 0 724.4 69" xml:space="preserve">
<g>
	<path d="M43.9,1v13.2H16.4v14.2H37v12.8H16.4v27.3H0V1H43.9z"/>
	<path d="M68.9,14.1v13.6h22v12.7h-22v14.8h24.9v13.2H52.5V1h41.3v13.2H68.9z"/>
	<path d="M120.9,14.1v13.6h22v12.7h-22v14.8h24.9v13.2h-41.3V1h41.3v13.2H120.9z"/>
	<path d="M172.8,55.7h21.5v12.7h-37.9V1h16.4V55.7z"/>
	<path d="M238.9,1v67.4h-16.4V1H238.9z"/>
	<path d="M311.1,68.4h-16.4l-27.5-41.6v41.6h-16.4V1h16.4l27.5,41.8V1h16.4V68.4z"/>
	<path d="M399.4,1v67.4h-16.4V27.9l-15.1,40.4h-13.2l-15.2-40.5v40.5H323V1h19.4l18.9,46.7L380.1,1H399.4z"/>
	<path d="M427.6,14.1v13.6h22v12.7h-22v14.8h24.9v13.2h-41.3V1h41.3v13.2H427.6z"/>
	<path d="M497.5,68.4l-14-25.4h-3.9v25.4h-16.4V1h27.6c5.3,0,9.8,0.9,13.6,2.8c3.7,1.9,6.5,4.4,8.4,7.6c1.9,3.2,2.8,6.8,2.8,10.8
		c0,4.5-1.3,8.5-3.8,12c-2.5,3.5-6.3,6-11.2,7.5L516,68.4H497.5z M479.5,31.3h10.2c3,0,5.3-0.7,6.8-2.2c1.5-1.5,2.3-3.6,2.3-6.2
		c0-2.6-0.8-4.6-2.3-6c-1.5-1.5-3.8-2.2-6.8-2.2h-10.2V31.3z"/>
	<path d="M536.8,66.6c-3.9-1.6-7-4-9.4-7.1c-2.3-3.1-3.6-6.9-3.7-11.3h17.5c0.3,2.5,1.1,4.4,2.6,5.7c1.5,1.3,3.4,2,5.8,2
		c2.4,0,4.4-0.6,5.8-1.7c1.4-1.1,2.1-2.7,2.1-4.7c0-1.7-0.6-3-1.7-4.1c-1.1-1.1-2.5-2-4.1-2.7c-1.6-0.7-4-1.5-7-2.4
		c-4.4-1.3-7.9-2.7-10.7-4c-2.8-1.3-5.1-3.3-7.1-6c-2-2.6-3-6-3-10.3c0-6.3,2.3-11.2,6.8-14.7c4.5-3.6,10.5-5.3,17.8-5.3
		c7.4,0,13.4,1.8,18,5.3c4.5,3.6,7,8.5,7.3,14.8H556c-0.1-2.2-0.9-3.9-2.4-5.1c-1.5-1.2-3.4-1.9-5.7-1.9c-2,0-3.6,0.5-4.8,1.6
		c-1.2,1.1-1.8,2.6-1.8,4.6c0,2.2,1,3.9,3.1,5.1c2,1.2,5.2,2.5,9.6,3.9c4.4,1.5,7.9,2.9,10.6,4.2c2.7,1.3,5.1,3.3,7.1,5.9
		c2,2.6,3,5.9,3,9.9c0,3.8-1,7.3-2.9,10.5c-2,3.1-4.8,5.6-8.5,7.5c-3.7,1.9-8.1,2.8-13.2,2.8C545.1,69,540.7,68.2,536.8,66.6z"/>
	<path d="M601.1,1v67.4h-16.4V1H601.1z"/>
	<path d="M676.3,1l-23.9,67.4h-20.5L608,1h17.5l16.7,50.9L658.9,1H676.3z"/>
	<path d="M699.5,14.1v13.6h22v12.7h-22v14.8h24.9v13.2h-41.3V1h41.3v13.2H699.5z"/>
</g>
</svg>
